/* XPM */
static char *_d5f2494820f42fec23a48a0fad67efe9kraGiCRtxGcLQws[] = {
/* columns rows colors chars-per-pixel */
"20 20 179 2 ",
"   c black",
".  c #F5D442",
"X  c #FFCA00",
"o  c #FAD22D",
"O  c #FCB70B",
"+  c #FFAE00",
"@  c #F9B924",
"#  c #F6C62E",
"$  c #F5CA39",
"%  c #FCD021",
"&  c #FEB701",
"*  c #F5C130",
"=  c #F6C42D",
"-  c #F8BA21",
";  c #F5C32F",
":  c #FFC300",
">  c #FFC500",
",  c #F5C838",
"<  c #F8D241",
"1  c #FFA800",
"2  c #FFB701",
"3  c #FCD121",
"4  c #FFD300",
"5  c #FBB70B",
"6  c #FBD12D",
"7  c #FFD200",
"8  c #FFB601",
"9  c #FFA900",
"0  c #F8D242",
"q  c #F5C937",
"w  c #FFC402",
"e  c #FFC400",
"r  c #F6BA25",
"t  c #F5C52C",
"y  c #F4C22F",
"u  c #FEB700",
"i  c #FCD122",
"p  c #F6C837",
"a  c #F7C42C",
"s  c #F8BA24",
"d  c #FCB70C",
"f  c #C3C6CB",
"g  c #FAD22C",
"h  c #FFD500",
"j  c #F7D141",
"k  c #E1D1B7",
"l  c #FAD232",
"z  c #FBD22D",
"x  c #FBD22B",
"c  c #FBCF25",
"v  c #FEBA0B",
"b  c #FEB708",
"n  c #FDB70B",
"m  c #FBB810",
"M  c #D1C8B7",
"N  c #F9D22E",
"B  c #FBD229",
"V  c #FCD228",
"C  c None",
"Z  c #FFB704",
"A  c #FEB705",
"S  c #FDB707",
"D  c #FBB70D",
"F  c #FAD22D",
"G  c #FCD228",
"H  c #FEB705",
"J  c #FCB70B",
"K  c #FDB70B",
"L  c #FDC516",
"P  c #FCC416",
"I  c #FEB705",
"U  c #FAD12E",
"Y  c #E2C381",
"T  c #FDB708",
"R  c #FBD22A",
"E  c #E7D38E",
"W  c #FCB80F",
"Q  c #FEB705",
"!  c #FCD228",
"~  c #FAD231",
"^  c #FDB80A",
"/  c #FBD22C",
"(  c #FEB708",
")  c #FBD22A",
"_  c #FDBA0B",
"`  c #FCCF25",
"'  c #FDBA0B",
"]  c #FEB707",
"[  c #FAD230",
"{  c #E4D58A",
"}  c #FBD229",
"|  c #DFC38E",
" . c #FAD22E",
".. c #FDC416",
"X. c #FDC417",
"o. c #FCB70C",
"O. c #FCB70B",
"+. c #FBD228",
"@. c #FBB70E",
"#. c #FDB707",
"$. c #FCD228",
"%. c #F9D12D",
"&. c #FCB80F",
"*. c #FDB70A",
"=. c #FDB708",
"-. c #FDBA0B",
";. c #FBCE25",
":. c #FBD22A",
">. c #FBD22C",
",. c #FAD231",
"<. c #DBCAB1",
"1. c #FCD327",
"2. c #FCD022",
"3. c #FFBB07",
"4. c #FFB803",
"5. c #FCD226",
"6. c #FCCA22",
"7. c #FCBE1C",
"8. c #FCB316",
"9. c #FDA605",
"0. c #FEA902",
"q. c #FEB203",
"w. c #FFB703",
"e. c #FCD225",
"r. c #FCCB23",
"t. c #FBAC14",
"y. c #FB9207",
"u. c #FB8702",
"i. c #FB8501",
"p. c #FB8701",
"a. c #FB8D02",
"s. c #FD9E02",
"d. c #FFB804",
"f. c #FDBB12",
"g. c #FB990B",
"h. c #FB8401",
"j. c #FB8803",
"k. c #FC9202",
"l. c #FDBA12",
"z. c #FBA912",
"x. c #FBA913",
"c. c #FB8300",
"v. c #FB8F06",
"b. c #FCC821",
"n. c #FB8802",
"m. c #FB8D05",
"M. c #FB9408",
"N. c #FBB317",
"B. c #FB9107",
"V. c #FEA903",
"C. c #FB8601",
"Z. c #FBAB13",
"A. c #FCCD24",
"S. c #FCBD1C",
"D. c #FEBB07",
"F. c #FDA505",
"G. c #FB9208",
"H. c #FBC21E",
"J. c #FCD326",
"K. c #FCC21E",
"L. c #FB9308",
"P. c #FCB215",
"I. c #FCD023",
"U. c #FCB216",
"Y. c #FCC620",
"T. c #FBBD1C",
"R. c #FB8602",
"E. c #FBBC1B",
"W. c #FCBC1B",
"Q. c #FB8B04",
"!. c #FCC420",
"~. c #FCC520",
"^. c #FBBE1D",
"/. c #FB9006",
"(. c #FBAB14",
"). c #FD9E03",
"_. c #FB8C05",
"`. c #FB8400",
"'. c white",
/* pixels */
"    . X o k l z x c v b n m M O + @     ",
"  # $ % N B V C 1.2.3.4.Z A S D & * =   ",
"- ; : F G 5.5.6.7.8.9.0.q.w.w.H J > , < ",
"1 2 K L e.r.t.y.u.i.i.p.a.s.q.d.P F 3 4 ",
"5 D I d.f.g.i.h.i.j.j.i.h.i.k.l.e.G U 6 ",
"Y T w.q.k.h.i.i.h.z.x.h.i.i.h.g.r.5.R E ",
"W Q w.s.i.i.h.c.v.b.b.v.c.h.i.i.t.5.! ~ ",
"^ Z q.a.i.n.m.M.N.5.5.N.M.m.j.h.B.6.C / ",
"( 4.V.C.C.Z.b.A.5.5.5.5.A.b.Z.C.u.S.1.) ",
"_ D.F.i.i.G.H.J.5.5.5.5.J.K.L.i.i.P.2.` ",
"` I.U.i.i.h.L.Y.J.5.5.J.Y.L.h.i.i.9.3.' ",
") 1.T.u.i.i.R.E.1.J.J.1.W.R.i.i.C.V.4.] ",
"/ C 6.B.h.i.Q.!.1.b.b.1.~.Q.i.h.a.q.Z ^ ",
"[ ! 5.t.i.h.v.^.t././.(.^.v.h.i.).w.Q W ",
"{ } 5.r.g.h.u._.i.h.h.i._.u.h.k.q.w.T | ",
"o U G e.l.k.i.h.i.i.i.i.`.h.g.f.d.H D O ",
"7 %  ...d.q.).a.p.i.i.u.y.t.r.e.X.o.8 9 ",
"0 q w O.H w.w.q.0.9.8.7.6.5.5.+. .e * r ",
"  t y u @.#.A Z 4.D.2.1.C $.B %.i p a   ",
"    s + d f &.*.=.-.;.:.>.,.<.g h j     "
};
