/* XPM */
static char *C__1_1726147227[] = {
/* columns rows colors chars-per-pixel */
"20 20 72 1 ",
"  c black",
". c #010000",
"X c #000100",
"o c #010100",
"O c #010101",
"+ c #020100",
"@ c #020001",
"# c #000200",
"$ c #000201",
"% c #020200",
"& c #030200",
"* c #020300",
"= c #030300",
"- c #030301",
"; c #000002",
": c #010002",
"> c #000102",
", c #010103",
"< c #020003",
"1 c #020202",
"2 c gray1",
"3 c #040300",
"4 c #030400",
"5 c #030500",
"6 c #030502",
"7 c #040400",
"8 c #050500",
"9 c #050600",
"0 c #060600",
"q c #060503",
"w c #030104",
"e c #030504",
"r c #040404",
"t c gray2",
"y c #373500",
"u c #353600",
"i c #373600",
"p c #363700",
"a c #383700",
"s c #373800",
"d c #393800",
"f c #7C7C18",
"g c #7D7D1B",
"h c #7E7E1E",
"j c #6F7024",
"k c #707026",
"l c #717127",
"z c #807E1A",
"x c #817F1B",
"c c #817E1D",
"v c #FFF53B",
"b c #FFF63C",
"n c #FEF83E",
"m c #F7EF42",
"M c #F6F042",
"N c #F7F143",
"B c #F4F144",
"V c #F5F245",
"C c #F8F043",
"Z c #F9F146",
"A c #F9F259",
"S c #FAF458",
"D c #FBF559",
"F c #F9F65B",
"G c #FCF767",
"H c #FBF968",
"J c #FBF869",
"K c #FDF868",
"L c #FCFA69",
"P c #F8F67D",
"I c #F9F77E",
"U c #F8F880",
/* pixels */
">>>>>>>>@>>>>>>>>>>>",
">>>>>>>>@>>>>>>>>>>>",
">>>@>>>>>>>@>>>>>>>>",
"@>@>>>>>>>>@>>@>>>>>",
">@>>>>>>>0q@>>>@>>>>",
">>>@>>>00q0@0>>@>>>>",
">>>>>>@5ugcd0@@>>>>>",
">>>>>00lUJGIl0@>>>>>",
">@@>0>uUAZNAPs5>>>>>",
"@>@@20hKZbbNJg55>>>>",
">@>@t@cKmvnBKz>0>>>>",
">>>>@0aIDNVDPu0>>>>>",
">>>>>0@lIHHIj50>>>>>",
">>>>@>@0ufzd5>>>>>>>",
">>>>@>>00@0>q@>>>>>>",
">>>>@>>>>t0@>>@>>>>>",
">>>>>>>>>>>>>>>>>>>>",
">>>>>>>>>>>>>>>>>>>>",
">>>>>>>>>>>>>>>>>>>>",
">>>>>>>>>>>>>>>>>>>>"
};
