/* XPM */
static char *Collect__1_1726151698[] = {
/* columns rows colors chars-per-pixel */
"20 20 131 2 ",
"   c #000100",
".  c #010101",
"X  c #030100",
"o  c #010200",
"O  c #010300",
"+  c #000201",
"@  c #030200",
"#  c #020300",
"$  c #010103",
"%  c #030102",
"&  c #010302",
"*  c #020202",
"=  c gray1",
"-  c #040300",
";  c #040203",
":  c #020400",
">  c #030400",
",  c #030500",
"<  c #020401",
"1  c #000403",
"2  c #000503",
"3  c #030502",
"4  c #020403",
"5  c #010602",
"6  c #040400",
"7  c #040600",
"8  c #040700",
"9  c #050601",
"0  c #040402",
"q  c #050702",
"w  c #040603",
"e  c #060702",
"r  c #030104",
"t  c #010204",
"y  c #000304",
"u  c #020204",
"i  c #020305",
"p  c #030305",
"a  c #020106",
"s  c #010206",
"d  c #000306",
"f  c #030207",
"g  c #020307",
"h  c #040205",
"j  c #010504",
"k  c #000405",
"l  c #000505",
"z  c #030504",
"x  c #000604",
"c  c #010705",
"v  c #020605",
"b  c #010506",
"n  c #000407",
"m  c #030406",
"M  c #010707",
"N  c #030706",
"B  c #020607",
"V  c gray2",
"C  c #050704",
"Z  c #040605",
"A  c #060604",
"S  c #040406",
"D  c #040507",
"F  c #070707",
"G  c #070803",
"H  c #000807",
"J  c #070904",
"K  c #060805",
"L  c #060807",
"P  c #090803",
"I  c #080904",
"U  c #080A05",
"Y  c #090A05",
"T  c #090907",
"R  c #000508",
"E  c #010508",
"W  c #030408",
"Q  c #010609",
"!  c #030708",
"~  c #020609",
"^  c #02070A",
"/  c #03070A",
"(  c #03060B",
")  c #050409",
"_  c #040509",
"`  c #050608",
"'  c #060709",
"]  c #070709",
"[  c #06050A",
"{  c #05060A",
"}  c #07060B",
"|  c #06070B",
" . c #06070C",
".. c #020808",
"X. c #030909",
"o. c #050908",
"O. c #040809",
"+. c #05090A",
"@. c #04080B",
"#. c #05090C",
"$. c #07080C",
"%. c #08080A",
"&. c #0C0B09",
"*. c #221F00",
"=. c #212000",
"-. c #232000",
";. c #232200",
":. c #242100",
">. c #6E6B34",
",. c #6E6D35",
"<. c #706A36",
"1. c #706D36",
"2. c #716E37",
"3. c #706D38",
"4. c #737138",
"5. c #737039",
"6. c #C2BD61",
"7. c #C6BD60",
"8. c #C4BF61",
"9. c #C5BF61",
"0. c #E9DE48",
"q. c #E9DF49",
"w. c #EADF49",
"e. c #EAE04B",
"r. c #FAEF79",
"t. c #FBF07A",
"y. c #FAF17A",
"u. c #F9F37B",
"i. c #F8F17C",
"p. c #FAF17C",
"a. c #FDF27C",
/* pixels */
"5 5 ) _ b H [ %.}  . .@.[ [  ...[ b t h ",
"5 t [ _ ....N o.[ } #.( o. .@._ [ b N t ",
"t t [ ) b _ ( o.o.o._ o.@.@._ @._ _ W W ",
"_ W ) W _ ......#...o..._ ..@._ _ ) W ) ",
"t b _ ..H H H o.[ [ [ [ @.( _ ..[ N h t ",
"t b _ _ b 5 L L L T &.N _ _ ..b h N N t ",
"t b ) _ _ b H w w X X w G b _ b b N W W ",
"t [ t [ _ H w w ;.4.2.:.5 G b _ [ h W W ",
"_ X t h H q X ;.8.u.i.6.;.5 w b N t t b ",
"b b N w b L X 2.y.e.e.p.,.X P b h b h t ",
"b 5 b N b L X <.y.w.0.p.>.- T t t t 5 b ",
"b X X 5 b G - ;.7.y.y.7.*.X w N 5 b X X ",
"t t h t [ t w X ;.4.2.;.5 G 5 b b t t t ",
"t t h h b b t G X X X - w X b 5 t b t t ",
"t h X N t b b b N T P w t b X 5 X X t X ",
"h X t X b b ..t X 5 h N t h b 5 5 X b X ",
"X X b X b b t b 5 X b b t w t t X X t X ",
"X X X X b X ) h b X 5 X t - t X X X X X ",
"X X X t t X t h 5 - h 5 X t - X t 5 X X ",
"t X t X X h t t b X 5 b t X h X X X X t "
};
