/* XPM */
static char *a99331f688c44e98ae01d0f586fa4749z6KAXZ1SsDW4ZoGe[] = {
/* columns rows colors chars-per-pixel */
"20 20 243 2 ",
"   c #1E0200",
".  c #210400",
"X  c #230602",
"o  c #220603",
"O  c #270400",
"+  c #270601",
"@  c #240502",
"#  c #260402",
"$  c #270503",
"%  c #250603",
"&  c #240703",
"*  c #230704",
"=  c #260704",
"-  c #2A0500",
";  c #280700",
":  c #2B0600",
">  c #2A0701",
",  c #280503",
"<  c #2A0403",
"1  c #2A0703",
"2  c #2C0700",
"3  c #2C0701",
"4  c #2F0600",
"5  c #2E0702",
"6  c #2B0504",
"7  c #290705",
"8  c #2A0705",
"9  c #2D0704",
"0  c #2E0604",
"q  c #260901",
"w  c #270803",
"e  c #250804",
"r  c #240805",
"t  c #250905",
"y  c #270805",
"u  c #260905",
"i  c #250906",
"p  c #240B06",
"a  c #270A06",
"s  c #270C05",
"d  c #250C07",
"f  c #2B0900",
"g  c #2B0802",
"h  c #280B03",
"j  c #290B03",
"k  c #2B0A03",
"l  c #2F0801",
"z  c #2E0901",
"x  c #2D0802",
"c  c #2C0903",
"v  c #2E0903",
"b  c #2F0A02",
"n  c #2B0804",
"m  c #280B05",
"M  c #2B0A05",
"N  c #2A0806",
"B  c #2B0907",
"V  c #290A07",
"C  c #280B07",
"Z  c #2C0905",
"A  c #2D0A04",
"S  c #2C0B04",
"D  c #2F0A04",
"F  c #2E0B05",
"G  c #2F0906",
"H  c #2C0B06",
"J  c #2E0B07",
"K  c #290C06",
"L  c #2B0C07",
"P  c #2A0D07",
"I  c #290E07",
"U  c #2D0C05",
"Y  c #2F0D04",
"T  c #2D0C07",
"R  c #2F0C06",
"E  c #2E0D06",
"W  c #2C0E06",
"Q  c #260D08",
"!  c #2D0A08",
"~  c #2D0B09",
"^  c #280C08",
"/  c #2B0C09",
"(  c #2B0E08",
")  c #2A0E0A",
"_  c #2B0F0B",
"`  c #2F0C08",
"'  c #2E0D08",
"]  c #2D0E09",
"[  c #2F0E09",
"{  c #2D0E0B",
"}  c #370703",
"|  c #300902",
" . c #310B02",
".. c #310A03",
"X. c #300B03",
"o. c #330B03",
"O. c #350803",
"+. c #340903",
"@. c #370802",
"#. c #320C03",
"$. c #310A05",
"%. c #300B05",
"&. c #330A04",
"*. c #320B04",
"=. c #300806",
"-. c #320B06",
";. c #360904",
":. c #350A04",
">. c #340B05",
",. c #360B05",
"<. c #340B07",
"1. c #310C04",
"2. c #330D04",
"3. c #330C05",
"4. c #320D05",
"5. c #300E05",
"6. c #310C06",
"7. c #300D07",
"8. c #330C07",
"9. c #320D07",
"0. c #370C05",
"q. c #340E05",
"w. c #350C06",
"e. c #340D06",
"r. c #360D07",
"t. c #350E07",
"y. c #340F07",
"u. c #370F07",
"i. c #380903",
"p. c #380804",
"a. c #390905",
"s. c #380B05",
"d. c #380B06",
"f. c #3B0B07",
"g. c #3C0B07",
"h. c #390C06",
"j. c #390C07",
"k. c #3B0C06",
"l. c #3A0D07",
"z. c #3C0D07",
"x. c #310B08",
"c. c #360A09",
"v. c #300D09",
"b. c #310E08",
"n. c #300F08",
"m. c #330E08",
"M. c #320F09",
"N. c #320F0B",
"B. c #340D08",
"V. c #350E09",
"C. c #340F09",
"Z. c #370E08",
"A. c #360F08",
"S. c #360D0B",
"D. c #340E0B",
"F. c #370E0A",
"G. c #360F0A",
"H. c #350F0C",
"J. c #360E0C",
"K. c #380B08",
"L. c #3A0D08",
"P. c #380F09",
"I. c #3A0F08",
"U. c #380F0B",
"Y. c #3D0D09",
"T. c #3D0E08",
"R. c #3C0F09",
"E. c #3E0F09",
"W. c #3C0C0A",
"Q. c #3E0E0A",
"!. c #3F0F0B",
"~. c #390D0C",
"^. c #3A0E0D",
"/. c #3C0F0C",
"(. c #3F0F0D",
"). c #2A110A",
"_. c #2D120B",
"`. c #311009",
"'. c #33100A",
"]. c #351008",
"[. c #371108",
"{. c #35100A",
"}. c #37100B",
"|. c #36110B",
" X c #33120D",
".X c #35120C",
"XX c #37120C",
"oX c #34130E",
"OX c #381008",
"+X c #391109",
"@X c #3B1009",
"#X c #39100A",
"$X c #38110A",
"%X c #3B100A",
"&X c #3A110B",
"*X c #39130A",
"=X c #39120B",
"-X c #3C110A",
";X c #3D100B",
":X c #3C110B",
">X c #3F100A",
",X c #3D120B",
"<X c #39100C",
"1X c #38110C",
"2X c #38130D",
"3X c #3A130C",
"4X c #3B120E",
"5X c #3C100D",
"6X c #3E110C",
"7X c #3E120F",
"8X c #3F120F",
"9X c #39140E",
"0X c #3C140C",
"qX c #3D140E",
"wX c #3E150F",
"eX c #3F1310",
"rX c #3D1410",
"tX c #3C1510",
"yX c #3C1711",
"uX c #3C1412",
"iX c #3D1812",
"pX c #400F0A",
"aX c #400E0D",
"sX c #41100C",
"dX c #42110D",
"fX c #41120C",
"gX c #40130D",
"hX c #42130D",
"jX c #40100E",
"kX c #40130E",
"lX c #43120E",
"zX c #41160F",
"xX c #44150F",
"cX c #401310",
"vX c #421210",
"bX c #401411",
"nX c #431610",
"mX c #451511",
"MX c #461711",
"NX c #441412",
"BX c #471713",
"VX c #431812",
"CX c #481913",
/* pixels */
"C ^ Q d = $ 7 C K ).K C W j j _.^ y     ",
"y C y y C , , ~ K K d C 6.G j ^ ^ y . * ",
"7 ^ y y ` =.9 J.` K q j m.m.W K y $ . y ",
"7 ~ = $ D.D.c.uXoXW , c D.D.6.G q . . . ",
"G x.$ $ D.~.K.eX4XW j 6.P.P.=.j ` C $ $ ",
"J.D.C 9 ~./.!.7X4X6.6.4XlX;Xr.c  X` C y ",
"4X}.6.m.7XvXaX7XP...r.wXlX;XP.r.m.` W G ",
"4XD.6.}.bXNXlX!.r.c >.;X!.k.!.P.W ` ` W ",
"=.6.c 2 >.!.g.s.D.6.[.OXz.lX$X..6.G G m.",
"2 D.'.6.@.@.} >.r.2 ....@.z.P.r.6.C G ` ",
"4X4Xm.G >.k.s.>.$Xc 6.r.s.k.P.$X6.c j c ",
"iXoXG G $XlX!.s.6., #.OXk.k.r.r.m.G c c ",
"=.m.m.oXuXvX!.7XD...$XzXNXCXbXwXr.G G W ",
"2 6.'.9XeXlXlXNX$X..r.;XlXxXlX$X[.6.6.m.",
">.=.G m.7X/.lXNXVXr.P.7XpXpX!.;Xr.#.W 6.",
"2 2 c 6.D.K.s.P.wX2 =.$Xs.i.>.$X..j G W ",
"6.6.c c c =.4XD.D.6.D.}.P.$XuXuXG j , , ",
"m.W c G G W oXD., 2 =.D.m.D.'.m.` G C C ",
"'.W c 6.W G }.D., , =.m.6.6.W G ` W C C ",
"'.W c m.m.G m.m.6.6.m.m.=.6.W G ` W G C "
};
