/* XPM */
static char *arcade__1_1726191167[] = {
/* columns rows colors chars-per-pixel */
"20 20 2 1 ",
"  c None",
". c #1089FF",
/* pixels */
"                    ",
"       ......       ",
"     ..........     ",
"    ............    ",
"    ............    ",
"   ..............   ",
"   ..............   ",
"   ..............   ",
"   ....  ....  ..   ",
"  .....  ....  ...  ",
"  ................  ",
"  ................  ",
"  ................  ",
"  ................  ",
"  ................  ",
"  ................  ",
"  ................  ",
"   ..............   ",
"   ...   ..   ...   ",
"                    "
};
