/* XPM */
static char *mypacman_close_removebg_preview__1_1726178530[] = {
/* columns rows colors chars-per-pixel */
"20 20 46 1 ",
"  c None",
". c #CD7809",
"X c #D87F07",
"o c #DE9608",
"O c #E28103",
"+ c #E38103",
"@ c #E48201",
"# c #E78B02",
"$ c #E88B00",
"% c #E98B00",
"& c #E98F02",
"* c #E59404",
"= c #EC9701",
"- c #ED9A01",
"; c #EFA201",
": c #ECA203",
"> c #EFA402",
", c #E8A205",
"< c #EFAE04",
"1 c #F0A301",
"2 c #F0A401",
"3 c #F0A501",
"4 c #F0A601",
"5 c #F1A602",
"6 c #F1A802",
"7 c #F2AE01",
"8 c #F2AE02",
"9 c #EDB607",
"0 c #F3B001",
"q c #F3B101",
"w c #F3B102",
"e c #F3B503",
"r c #F5B402",
"t c #F5B903",
"y c #F7BC01",
"u c #F5BB04",
"i c #F1B70A",
"p c #F6C405",
"a c #F7C506",
"s c #FBC701",
"d c #F8C604",
"f c #F8C705",
"g c #F7CC07",
"h c #F9CD06",
"j c #F3C90B",
"k c #F5CA09",
/* pixels */
"                    ",
"                    ",
"                    ",
"                    ",
"                    ",
"       khgj         ",
"      psf dp        ",
"     9yyuitr,       ",
"     <qqw855>       ",
"     :111158q       ",
"     *====-5e       ",
"      #$$$$&o       ",
"      X+@@+.        ",
"                    ",
"                    ",
"                    ",
"                    ",
"                    ",
"                    ",
"                    "
};
