/* XPM */
static char *my_pac__3___1_1726145742[] = {
/* columns rows colors chars-per-pixel */
"20 20 88 1 ",
"  c black",
". c #010000",
"X c #000100",
"o c #010100",
"O c #020100",
"+ c #020001",
"@ c #000200",
"# c #010300",
"$ c #020200",
"% c #000002",
"& c #010002",
"* c #000004",
"= c #00001B",
"- c #00001C",
"; c #00001E",
": c #000020",
"> c #000021",
", c #000022",
"< c #000039",
"1 c #00003B",
"2 c #000055",
"3 c #000056",
"4 c #000057",
"5 c #000058",
"6 c #000059",
"7 c #00005A",
"8 c #00005B",
"9 c #00005D",
"0 c #00005E",
"q c #00005F",
"w c #000060",
"e c #000061",
"r c #000062",
"t c #000070",
"y c #000071",
"u c #000072",
"i c #000073",
"p c #000075",
"a c #00007C",
"s c #00007F",
"d c #000082",
"f c #0C0B8B",
"g c #0A0E8B",
"h c #0D0D89",
"j c #0C0E89",
"k c #0D0C8B",
"l c #0C0D8B",
"z c #0B0A8C",
"x c #0B0B8D",
"c c #0C0B8D",
"v c #0C0A8F",
"b c #0D0C8C",
"n c #0C0D8C",
"m c #0F0C8D",
"M c #0E0D8D",
"N c #0C0C8E",
"B c #0E0D8F",
"V c #000191",
"C c #000291",
"Z c #020391",
"A c #000092",
"S c #010193",
"D c #000490",
"F c #000593",
"G c #0C0890",
"H c #0D0B90",
"J c #0C0A92",
"K c #0D0B92",
"L c #0C0C90",
"P c #0C0C92",
"I c #0B0A96",
"U c #0C0B97",
"Y c #0B0F95",
"T c #0C0998",
"R c #0E0999",
"E c #0E099B",
"W c #0C0A9B",
"Q c #0D0C98",
"! c #0E0C9D",
"~ c #0C0C9E",
"^ c #0E0C9E",
"/ c #0F0D9E",
"( c #100D90",
") c #100F97",
"_ c #100E9F",
"` c #0D1095",
"' c #0E0BA0",
"] c #100DA2",
/* pixels */
"aD]EKMKKjMMlMMnnE/Ca",
"D`ur995544445545ru)C",
"_u1>----=-=->--=>1u_",
"Er> #  # #  **   >9Q",
"c9- # $   +* *   -9c",
"M5- #   **       -5m",
"c5-   # +  +   + -5c",
"M4=      ++      -5K",
"l4-#*  +         -5I",
"l4-  *&&         -5(",
"l4-   &&*    *   =4l",
"h4-*        *    =2l",
"l4-      ## ##   -4l",
"l4-              -4l",
"M4-              -4l",
"K5-   +       *+ -5K",
"Q9-              -rI",
"/p1>>---==------>1u!",
"C`pr954542444445rt)C",
"aF/WG(mklgMMMllcI_Cd"
};
