/* XPM */
static char *my_pac__4___1_1726146760[] = {
/* columns rows colors chars-per-pixel */
"20 20 134 2 ",
"   c #0F120B",
".  c #0F110C",
"X  c #0E130D",
"o  c #0F110E",
"O  c #12130B",
"+  c #10110C",
"@  c #12110D",
"#  c #10130C",
"$  c #10120D",
"%  c #11120D",
"&  c #12130D",
"*  c #10100E",
"=  c #11110F",
"-  c #12110F",
";  c #11130E",
":  c #10120F",
">  c #11140D",
",  c #101010",
"<  c #111111",
"1  c #121011",
"2  c #111310",
"3  c #101211",
"4  c #121210",
"5  c #131210",
"6  c #101113",
"7  c #111113",
"8  c #131112",
"9  c #121013",
"0  c #111312",
"q  c #121413",
"w  c #131114",
"e  c #0A0B29",
"r  c #0B0C28",
"t  c #090F29",
"y  c #0A0E29",
"u  c #0B0C2B",
"i  c #0A0E2B",
"p  c #0C0D29",
"a  c #0D0D29",
"s  c #0D0C2B",
"d  c #0C0D2B",
"f  c #0D0E2A",
"g  c #0E0F2B",
"h  c #0B0F2C",
"j  c #0C0D2C",
"k  c #0E0D2C",
"l  c #0D0E2C",
"z  c #0E0F2E",
"x  c #0A0B44",
"c  c #0A0A46",
"v  c #0B0A46",
"b  c #0A0A48",
"n  c #050565",
"m  c #070566",
"M  c #060666",
"N  c #070767",
"B  c #080764",
"V  c #080765",
"C  c #080667",
"Z  c #050865",
"A  c #070865",
"S  c #050867",
"D  c #060668",
"F  c #070769",
"G  c #07056A",
"H  c #07076B",
"J  c #06056D",
"K  c #07066E",
"L  c #080669",
"P  c #09036D",
"I  c #06096A",
"U  c #080868",
"Y  c #090969",
"T  c #0B096C",
"R  c #0A0A6C",
"E  c #0B096E",
"W  c #070570",
"Q  c #070572",
"!  c #090371",
"~  c #00007C",
"^  c #00007E",
"/  c #08077C",
"(  c #0A077C",
")  c #0A067F",
"_  c #09087D",
"`  c #09087F",
"'  c #000083",
"]  c #090880",
"[  c #0C0B8B",
"{  c #0E0E8A",
"}  c #0D0C8C",
"|  c #0E0D8C",
" . c #0F0C8D",
".. c #0E0D8D",
"X. c #0D0E8C",
"o. c #0D0E8D",
"O. c #0C0C8E",
"+. c #0D0D8F",
"@. c #0E0D8F",
"#. c #010290",
"$. c #020393",
"%. c #000591",
"&. c #000493",
"*. c #030395",
"=. c #030397",
"-. c #000795",
";. c #0D0B90",
":. c #090D93",
">. c #0D0D91",
",. c #0E0C91",
"<. c #0F0C91",
"1. c #0F0E90",
"2. c #0F0F91",
"3. c #0D0D93",
"4. c #0E0E92",
"5. c #0F0B96",
"6. c #0F0D94",
"7. c #0E0D95",
"8. c #0C0F94",
"9. c #0F0F95",
"0. c #0C0A9B",
"q. c #0E0B9A",
"w. c #0D0C98",
"e. c #0F0C99",
"r. c #0F0E9A",
"t. c #0D0B9C",
"y. c #0D0B9D",
"u. c #0F0B9D",
"i. c #0F0B9E",
"p. c #0E0C9D",
"a. c #120A9B",
"s. c #100A9E",
"d. c #0D0AA1",
"f. c #0F0AA2",
/* pixels */
"~ %.f.s.5.O.1.@.} } @.@.@.@.} @.u.u.%.~ ",
"%.8.) ! T M C U A A M A I M A A K / 9.#.",
"u.) v k e s s e s s u s s u k u s x _ y.",
"a.P k O O ; ; ; ; o ; ; 2 ; 2 ; > s K a.",
"@.T u # O   * ; 1 , 9 1 , , , 9 ; s T O.",
"@.M u ; o o 2 , w 2 9 9 , 2 9 9 ; s F [ ",
"4.M k o o 0 2 2 9 9 9 9 , ; 9 9 O s n 4.",
"@.I u 2 0 , 9 w 9 9 9 , - @ 9 * ; s A O.",
"@.I k 2 , 2 9 9 w w 2 , 2 2 ; , ; r F <.",
"} A k 1 9 @ 9 9 9 2 2 , , o 2 * O a F <.",
"} A e @ 2 9 9 9 , 2 9 w * 2 , , ; s C 1.",
"@.A e ; 2 , 9 , 2 , , , 2 2 , 2 ; s A { ",
"4.M u ; * 1 ; 2 , 9 , 2 ; o , w ; e V { ",
"@.I h , * ; , 1 , 2 2 ; * ; 9 2 @ e V  .",
"@.M s ; 9 9 9 , w 2 2 * , 9 9 , ; e F <.",
"4.F u 2 9 , 9 , 2 , 9 , 2 2 , , ; h F 8.",
"q.K z ; ; ; 2 2 X X   ; ; ; ; ;   u K :.",
"y.) b u s s s u t t u s s e s s s v ) q.",
"%.:.] Q L M U U A A C C L M C L K / 4.*.",
"~ -.f.f.4.@.} @.@.@.@.O.@.@.@.<.u.u.-.' "
};
