/* XPM */
static char *pacman_removebg_preview__1_1726092509[] = {
/* columns rows colors chars-per-pixel */
"20 20 159 2 ",
"   c None",
".  c #040304",
"X  c #0A0705",
"o  c #0A0802",
"O  c #0D0807",
"+  c #13120D",
"@  c #2C1907",
"#  c #2D1D07",
"$  c #20190B",
"%  c #261D0A",
"&  c #2F1A08",
"*  c #2C1D0A",
"=  c #361F06",
"-  c #2A2207",
";  c #28210D",
":  c #372207",
">  c #312705",
",  c #32260A",
"<  c #3B2208",
"1  c #372E0A",
"2  c #3D340C",
"3  c #4D2B07",
"4  c #4F2C07",
"5  c #4F3506",
"6  c #40320A",
"7  c #42340B",
"8  c #42370B",
"9  c #47320F",
"0  c #583306",
"q  c #593506",
"w  c #533D08",
"e  c #603506",
"r  c #613606",
"t  c #673E07",
"y  c #623908",
"u  c #4B400F",
"i  c #56410B",
"p  c #5E4F09",
"a  c #5D4310",
"s  c #634406",
"d  c #654707",
"f  c #62420F",
"g  c #6B4F0A",
"h  c #61530A",
"j  c #685309",
"k  c #695509",
"l  c #7C540F",
"z  c #756209",
"x  c #76630A",
"c  c #756110",
"v  c #776110",
"b  c #864C05",
"n  c #8F5007",
"m  c #885505",
"M  c #9A6A0E",
"N  c #957208",
"B  c #93710C",
"V  c #9C710B",
"C  c #9A7508",
"Z  c #9B7709",
"A  c #B3730C",
"S  c #C36D04",
"D  c #C57104",
"F  c #C87004",
"G  c #CD7506",
"H  c #C67804",
"J  c #C3790A",
"K  c #D57D04",
"L  c #DC7B02",
"P  c #DE7B02",
"I  c #E37E01",
"U  c #E47E01",
"Y  c #9D820A",
"T  c #A58A0D",
"R  c #AC890D",
"E  c #B18508",
"W  c #BE840C",
"Q  c #BA9205",
"!  c #C78105",
"~  c #CC860A",
"^  c #DC8104",
"/  c #C59108",
"(  c #C39B0D",
")  c #D29D06",
"_  c #E58300",
"`  c #E68300",
"'  c #E78300",
"]  c #E78400",
"[  c #E78700",
"{  c #E88401",
"}  c #E98501",
"|  c #E98800",
" . c #EA8801",
".. c #E98C00",
"X. c #EC8E01",
"o. c #ED8F01",
"O. c #E39703",
"+. c #E79004",
"@. c #EA9200",
"#. c #EC9300",
"$. c #EC9301",
"%. c #ED9900",
"&. c #EC9801",
"*. c #EE9901",
"=. c #ED9A02",
"-. c #EE9E01",
";. c #E09608",
":. c #C7A009",
">. c #D0A705",
",. c #D9AA07",
"<. c #DEB406",
"1. c #DEB507",
"2. c #DEB807",
"3. c #EDA302",
"4. c #EAAB03",
"5. c #EFA902",
"6. c #F0A001",
"7. c #F0A401",
"8. c #F1A501",
"9. c #F1AB01",
"0. c #F3AC02",
"q. c #E6B105",
"w. c #E0B605",
"e. c #EFB703",
"r. c #EFB304",
"t. c #ECBD05",
"y. c #EBB408",
"u. c #E5BA0A",
"i. c #E2BC08",
"p. c #F3B201",
"a. c #F1B103",
"s. c #F5B701",
"d. c #F6B801",
"f. c #F7B801",
"g. c #F7BD01",
"h. c #F8BA02",
"j. c #FBBB02",
"k. c #F8BE01",
"l. c #F1C107",
"z. c #FBC001",
"x. c #F9C300",
"c. c #FBC002",
"v. c #FAC400",
"b. c #FBC501",
"n. c #FCC500",
"m. c #FDC601",
"M. c #F7CD03",
"N. c #FBC800",
"B. c #FDC900",
"V. c #FDCA01",
"C. c #FBCC02",
"Z. c #FACF03",
"A. c #FCCD00",
"S. c #FDCE00",
"D. c #FDCE01",
"F. c #FFD001",
"G. c #FFD002",
"H. c #FED202",
"J. c #FFD302",
/* pixels */
"                                        ",
"              1 p z z h 2               ",
"          8 Y 2.M.H.H.Z.i.T u           ",
"        k 1.H.A.A.A.1.w.A.H.u.c +       ",
"      j t.V.N.N.V.:.- > >.V.V.l.c       ",
"    6 ,.b.c.x.x.m.R . o Q m.c.m.( ;     ",
"    N c.g.g.g.g.j.y.B C e.c.q.Z 7       ",
"  , ) f.f.s.s.s.s.f.h.j.r.E i           ",
"  w 4.a.a.a.a.a.p.p.a./ j $             ",
"  d 5.0.0.0.0.0.5.0.V %                 ",
"  s 3.8.8.3.3.6.5.8.W a                 ",
"  5 O.-.-.-.-.-.-.-.6.;.M 9             ",
"  # ! =.&.&.&.&.&.&.=.=.=.~ l           ",
"    m #.@.&.@.@.@.@.@.@.@.#.+.A f       ",
"    : H @. ..... .............o.J *     ",
"      q K  .[ [ [ [ [ [ [ }  .^ t       ",
"        0 D } ' ' ' _ ' ' } G y O       ",
"          = b S L I I L S n <           ",
"              @ 3 r r 4 & O             ",
"                                        "
};
