/* XPM */
static char *top_view_yellow_circle_white_background__1_1726012357[] = {
/* columns rows colors chars-per-pixel */
"20 20 13 1 ",
"  c None",
". c #FEDE02",
"X c #FFE000",
"o c #FFE001",
"O c #FFE101",
"+ c #FFE300",
"@ c #FFE201",
"# c #FFE301",
"$ c #FFE400",
"% c #FFE500",
"& c #FFE401",
"* c #FFE700",
"= c #FEE601",
/* pixels */
"                    ",
"       &#####       ",
"     ####.##.#.     ",
"    #&##.#..##.#    ",
"   &&&&###.#..#.#   ",
"  &&&&&##&#&.##..#  ",
"  &&&&&#&###&..#.&  ",
" &&&&&&*&&#&#.#..#  ",
" &&**&&&&&&&&#&#..# ",
" &&&&&*&&&&&#&.##.. ",
" &*&&*&&&&&&&#&###. ",
" #&&==*&&&&&&&.#&.# ",
" &&&===&&**&&#&&#&  ",
"  &&====&&&&&&&#&#  ",
"  &&***&*&&&&&&&&   ",
"   &&****&&&&&#&&   ",
"    &****&&&*&&#    ",
"     &&*&&*&&&#     ",
"       &##&&#       ",
"                    "
};
