/* XPM */
static char *black__1_1726230303[] = {
/* columns rows colors chars-per-pixel */
"40 40 29 1 ",
"  c black",
". c #010101",
"X c #010302",
"o c #020202",
"O c gray1",
"+ c #000403",
"@ c #020403",
"# c #010204",
"$ c #020305",
"% c #010504",
"& c #030504",
"* c #020605",
"= c #010506",
"- c #030406",
"; c #020607",
": c #040605",
"> c #040406",
", c #040507",
"< c #010508",
"1 c #030408",
"2 c #010609",
"3 c #030708",
"4 c #020609",
"5 c #02070A",
"6 c #03070A",
"7 c #040509",
"8 c #040809",
"9 c #05090A",
"0 c #04080B",
/* pixels */
"-----222333333889999999988002020-3----+&",
"------2233338288999999990000080<33-3-*&&",
"-----322333338888888888802020<<2-2:7-:++",
"------8233333888888888882080<<82<-7:-+&&",
"----33-2-333<88888888888<00<00<<33-7>&++",
"-----322333388888888888800<0<<<02-::>:++",
"-----3223--333<8888888880<<0<<<0-<71$:OO",
"-----3223-33338888888888000000<<-7:::+OO",
"++&&--33-222<00000000000<00<0<<023-+++$O",
"+++:---32282000<00000000<00<0<<<2---&&$$",
"&+&>---3<822<000<000000<00000<0<2-:+++&O",
"O+O>--33<2<8<0<<<0<00<0<0<<0<<0<<-:+&&OO",
"+&+:>>3-8<<<0000000<<000000<<<0<2--3OO$$",
"+OO>>$3-0<0<<0<00<0000<0<<000<<<2---OO$O",
"&&O>$><3<<<<<000<0<00<0<00<<0<0<<-:&O+$O",
"O++&:$-<<<<00<<<00<00<000<0<<<<<<-$&++OO",
"OOO&&::&<<<<8<22<<<0<0<<0<8<<---:$$O+OOO",
"OOO&&&:&0707<<82<0<<<0<00<2<<---7>$$+OOO",
"OOOO&&&&777<<8220<0<<<0<<<<<---2>$$+&OOO",
"OO&&&&&&1170<<22<<0<0<<<<<<<----:$$+OOOO",
"OOO&&&&&>7$:<7-3<0<<0<<0<--<----$$$+OOOO",
"OOOO&&&&>$1$:<3-<<0<0<<0---$--+*$$$OOOOO",
"OOO+O++-$>>$$7<<00<<<<<<-3>>:&++$$O+OOOO",
"OOO&&&+O7$1:>>::<<<0<00<--::&&&&$OOOOOOO",
"OOOOOO$$$:1$7$:71$1:7:$:3+&&&&&+O+&OOOOO",
"OOOOOO$$>1$>$:$7>>:7:71$3+&&&+&&&+OOOOOO",
"OOOOO$$$:$$>1:1$$>:71>$>+*+:&O+&++OOOOOO",
"OOOOO$$$$$$$>$$>7$$>$>>:*+:++&+O+OOOOOOO",
"OOOOO$$$$$$$$$>:$:$>&>>O++&&&&O+++OOOOOO",
"OOOOO$$$$$$$$$$$O+--&&O+++O+O+O&+OOOOOOO",
"OOOOO$$$$$$$$$$$O&+&&++&++&O+O+&OOOOOOOO",
"OOOOO$$$$$$$$$$O+&+&&O&&+++O&&+OOOOOOOOO",
"OOOOOOOOOOOOOOOOOOOOOOOOOOOOOOOOOOOOOOOO",
"OOOOOOOOOOOOOOOOOOOOOOOOOOOOOOOOOOOOOOOO",
"OOOOOOOOOOOOOOOOOOOOOOOOOOOOOOOOOOOOOOOO",
"OOOOOOOOOOOOOOOOOOOOOOOOOOOOOOOOOOOOOOOO",
"OOOOOOOOOOOOOOOOOOOOOOOOOOOOOOOOOOOOOOOO",
"OOOOOOOOOOOOOOOOOOOOOOOOOOOOOOOOOOOOOOOO",
"OOOOOOOOOOOOOOOOOOOOOOOOOOOOOOOOOOOOOOOO",
"OOOOOOOOOOOOOOOOOOOOOOOOOOOOOOOOOOOOOOOO"
};
