/* XPM */
static char *golden_star_3d__1_1726055521[] = {
/* columns rows colors chars-per-pixel */
"20 20 55 1 ",
"  c None",
". c #BF7206",
"X c #BF7306",
"o c #BE7307",
"O c #BF7609",
"+ c #C17707",
"@ c #C17708",
"# c #C37B09",
"$ c #C57E0A",
"% c #C6810B",
"& c #C9830A",
"* c #CA870C",
"= c #CB890C",
"- c #CB8A0E",
"; c #CD8A0C",
": c #CD8D0D",
"> c #CE900F",
", c #D0920F",
"< c #D39610",
"1 c #D59B12",
"2 c #D59C12",
"3 c #D79E13",
"4 c #DAA312",
"5 c #DBA614",
"6 c #DCA917",
"7 c #DFAD16",
"8 c #DFAE18",
"9 c #E1B21A",
"0 c #E3B519",
"q c #E2B719",
"w c #E2B41A",
"e c #E3B51A",
"r c #E2B51F",
"t c #E5B81A",
"y c #E7BA1B",
"u c #E7BC1C",
"i c #E7BD1E",
"p c #E9C01C",
"a c #E8C01F",
"s c #EAC31E",
"d c #ECC31E",
"f c #EEC81F",
"g c #EAC521",
"h c #EFCB23",
"j c #EBC92A",
"k c #EBC82D",
"l c #F1CD21",
"z c #F1CE21",
"x c #F1CE23",
"c c #F2D024",
"v c #F2D124",
"b c #F4D627",
"n c #F7D825",
"m c #F5D827",
"M c #F7DB27",
/* pixels */
"                    ",
"         ci         ",
"         x0         ",
"        8x0-        ",
"        5x0*        ",
"       -4xr;O       ",
"       *4xr;@       ",
" MMldy924xr;<9ydxMM ",
" qfMMvfp9x92ifvMMg0 ",
"  :29kbbxcufbbk92>  ",
"   %&;27pcxg92-&%   ",
"    o+&,7pgy,&+o    ",
"     o:7f46vy,X     ",
"     -4gr:,uv7-     ",
"     2ip,$&1jf4     ",
"     9j1&+o;6vi     ",
"    rg6&#  #<9v0    ",
"    s0>      1ix    ",
"    p          h    ",
"                    "
};
