/* XPM */
static char *wall1726007972[] = {
/* columns rows colors chars-per-pixel */
"20 20 211 2 ",
"   c #0E0000",
".  c #100000",
"X  c #130101",
"o  c #160100",
"O  c #1A0000",
"+  c #1A0001",
"@  c #1D0000",
"#  c #1C0001",
"$  c #1E0000",
"%  c #1F0000",
"&  c #1F0100",
"*  c #1F0101",
"=  c #1E0201",
"-  c #1D0002",
";  c #1E0002",
":  c #1F0103",
">  c #200001",
",  c #210200",
"<  c #210102",
"1  c #200202",
"2  c #250000",
"3  c #250101",
"4  c #270000",
"5  c #270100",
"6  c #270001",
"7  c #270003",
"8  c #280000",
"9  c #290001",
"0  c #290101",
"q  c #280201",
"w  c #2B0102",
"e  c #2A0202",
"r  c #2E0000",
"t  c #2F0002",
"y  c #2F0103",
"u  c #310000",
"i  c #310101",
"p  c #320001",
"a  c #320200",
"s  c #300002",
"d  c #330102",
"f  c #320003",
"g  c #350000",
"h  c #340100",
"j  c #340002",
"k  c #350103",
"l  c #360002",
"z  c #370002",
"x  c #370003",
"c  c #340004",
"v  c #370005",
"b  c #390000",
"n  c #390100",
"m  c #3B0100",
"M  c #3A0001",
"N  c #3A0201",
"B  c #380003",
"V  c #3B0003",
"C  c #3C0000",
"Z  c #3D0000",
"A  c #3C0100",
"S  c #3D0100",
"D  c #3E0100",
"F  c #3E0001",
"G  c #3F0200",
"H  c #3E0201",
"J  c #3C0002",
"K  c #3D0002",
"L  c #3D0103",
"P  c #3F0102",
"I  c #3E0003",
"U  c #3F0104",
"Y  c #400000",
"T  c #410000",
"R  c #420001",
"E  c #430200",
"W  c #400002",
"Q  c #450100",
"!  c #440001",
"~  c #470101",
"^  c #440301",
"/  c #460201",
"(  c #450102",
")  c #460002",
"_  c #470002",
"`  c #470103",
"'  c #460203",
"]  c #410004",
"[  c #470304",
"{  c #480001",
"}  c #4B0100",
"|  c #480200",
" . c #490102",
".. c #4A0002",
"X. c #4B0102",
"o. c #4A0003",
"O. c #480202",
"+. c #4A0203",
"@. c #4D0101",
"#. c #4E0000",
"$. c #4F0100",
"%. c #4F0101",
"&. c #4C0201",
"*. c #4C0002",
"=. c #4D0103",
"-. c #4C0203",
";. c #500000",
":. c #510000",
">. c #510100",
",. c #510001",
"<. c #520100",
"1. c #530103",
"2. c #500202",
"3. c #530302",
"4. c #550000",
"5. c #550100",
"6. c #550101",
"7. c #560000",
"8. c #570100",
"9. c #570102",
"0. c #560202",
"q. c #570303",
"w. c #500406",
"e. c #580000",
"r. c #590100",
"t. c #580001",
"y. c #590001",
"u. c #5A0000",
"i. c #5B0000",
"p. c #5B0101",
"a. c #580201",
"s. c #5A0201",
"d. c #5B0302",
"f. c #5C0100",
"g. c #5C0001",
"h. c #5F0000",
"j. c #5F0100",
"k. c #5E0001",
"l. c #5F0101",
"z. c #5C0201",
"x. c #5D0201",
"c. c #5F0102",
"v. c #5C0202",
"b. c #5D0303",
"n. c #5E0302",
"m. c #5E0203",
"M. c #5F0403",
"N. c #600001",
"B. c #620000",
"V. c #630000",
"C. c #630100",
"Z. c #620001",
"A. c #600200",
"S. c #610200",
"D. c #600002",
"F. c #610102",
"G. c #630102",
"H. c #600202",
"J. c #640000",
"K. c #650000",
"L. c #650100",
"P. c #650001",
"I. c #650101",
"U. c #660000",
"Y. c #670000",
"T. c #670100",
"R. c #670001",
"E. c #640201",
"W. c #660200",
"Q. c #640002",
"!. c #650103",
"~. c #660002",
"^. c #670003",
"/. c #650302",
"(. c #640203",
"). c #660202",
"_. c #670303",
"`. c #650304",
"'. c #680000",
"]. c #690000",
"[. c #690100",
"{. c #680001",
"}. c #6A0000",
"|. c #6B0000",
" X c #6A0100",
".X c #6B0101",
"XX c #680200",
"oX c #690301",
"OX c #6A0201",
"+X c #680102",
"@X c #690102",
"#X c #6A0002",
"$X c #6C0000",
"%X c #6D0000",
"&X c #6D0101",
"*X c #6F0100",
"=X c #6E0001",
"-X c #6E0200",
";X c #6F0200",
":X c #6C0002",
">X c #6F0102",
",X c #6C0202",
"<X c #6E0202",
"1X c #6F0303",
"2X c #6A0304",
"3X c #6B0304",
"4X c #700000",
"5X c #710100",
"6X c #700001",
"7X c #720000",
"8X c #730101",
/* pixels */
"v m ] ) o.o.+.^ F m F ^ ) ) m t & X . . ",
"m F ` %.q.q.5.<.<.%.%.%.<.+.F c 7 & X X ",
"F ) %.a.A.A.A.f._.m.a.a.f.5.) m c 5 & O ",
") %.<.a.f.P.P.P.2XP.P.!.P.a.%.^ x y 5 : ",
"%.%.5.a.f.f.f.M.].]._.2X>XP.a.o.m t 5 & ",
"<.5.a.M.H.H.M.f.oXP.`.P.P.A.a.w.m d 5 , ",
"5.a.A.P._.P.P.A.].P.A.].P.f.5.o.F d 5 1 ",
"f.A.P.].].>X>X>X8X].].].oXH.<.) F x 5 O ",
"P.P.P.!.P.].].5X8X8X>X].`.M.<.+.] v 5 & ",
"].P.!.!.].].].1X>X8X8X].`.d.%.) F x 5 & ",
"P.].P.2XP.].P.].].1X1X].A.5.%.^ U d e & ",
"P.P.].P.].P.].P.P.oXoX].f.<.) m V c 5 & ",
"P.P.].].].2XP.P.P.P.P.A.a.%.^ m V d 5 & ",
"A.P.P.].].].P.P.f.H.H.f.<.%.^ F m d , & ",
"A.H.].>X>X].].P.A.A.a.5.%.+.) ^ U d 5 & ",
"H._.].].>X6X3X].A.f.a.<.+.+.) ) F c 7 & ",
"f.!.].>X>XoXP.H.f.5.5.5.<.o.[ F v t 5 & ",
"f.A.].].].oXP.H.a.5.5.5.5.o.) F x t 5 & ",
"a.f.!.2X].P.M.a.a.5.5.5.1.o.) m d e , & ",
"5.a.H.!.P.A.f.a.M.5.5.5.<.o.) F t 5 & O "
};
