/* XPM */
static char *wall__1_1726069094[] = {
/* columns rows colors chars-per-pixel */
"20 20 56 1 ",
"  c #0F4287",
". c #0D468B",
"X c #0F498E",
"o c #114586",
"O c #124A87",
"+ c #13478B",
"@ c #144C8C",
"# c #194D8D",
"$ c #15508E",
"% c #1A518E",
"& c #0D4791",
"* c #0D4C92",
"= c #134E92",
"- c #194F91",
"; c #0F539C",
": c #155293",
"> c #1B5493",
", c #1C5996",
"< c #14549B",
"1 c #1A569A",
"2 c #15599E",
"3 c #1C5B9B",
"4 c #225994",
"5 c #225E9C",
"6 c #1D609E",
"7 c #24619D",
"8 c #2A629D",
"9 c #0E5CA6",
"0 c #1156A1",
"q c #145DA3",
"w c #1A5EA3",
"e c #125EAA",
"r c #1662A6",
"t c #1C62A4",
"y c #1E68A7",
"u c #1663AB",
"i c #1B65AB",
"p c #1C6AAC",
"a c #1466B3",
"s c #1867B2",
"d c #166BB4",
"f c #1B6CB2",
"g c #176DB8",
"h c #1C6DB8",
"j c #1D71B7",
"k c #2365A2",
"l c #2967A0",
"z c #2469A4",
"x c #2868A6",
"c c #226CAC",
"v c #286CA9",
"b c #2470AE",
"n c #2971AB",
"m c #226EB6",
"M c #2A6FB0",
"N c #2372B1",
/* pixels */
"@cw>O>O.@82>#+:+=w>O",
"m>o:kgzrn:O=p7tkj>;z",
">o,:4i6#::>w:%+>w>>+",
"ketttOX,eNkw2rir-=ku",
",iN5<3fl233zwc526hl2",
"<:o>-,+-@*> O#-=,++:",
"h61fmcuflucimwvmf>qy",
">@4=>,=:>uk,O>,=@>fz",
"6qk0>#97w:&,wt<97w:O",
"3qxuNku52,zp13kal2,<",
"=@4<=$@=%:>.>-,+X#=:",
"hb62,unfcivavkr7fzip",
">@725k3>#=,:+5p5=@3>",
"62>&3O*,er>3rwo=3e,<",
"wiNtrkp7233Ntt,rlilq",
"@:>>o:O=:=5=##3+@+@@",
"f5;nwukgxsc=pkr,dkfc",
"i5:@wf7&>2#pc,=>wk=-",
"#=q><.:>t,q> :204=,q",
"kthxt7sztnj6qpxikqxu"
};
