/* XPM */
static char *ccc15086d0244b4d91714f20bd1efee2LFpgZuaKIPOwpmLK[] = {
/* columns rows colors chars-per-pixel */
"20 20 113 2 ",
"   c #020203",
".  c #0A0102",
"X  c #010902",
"o  c #03030B",
"O  c #0A030A",
"+  c #020A0C",
"@  c #140204",
"#  c #11020D",
"$  c #1A000D",
"%  c #111000",
"&  c #000312",
"*  c #0D0210",
"=  c #020D14",
"-  c #090C15",
";  c #02021A",
":  c #040A1C",
">  c #0C0B1B",
",  c #100910",
"<  c #041214",
"1  c #0D1015",
"2  c #02121C",
"3  c #0E161D",
"4  c #12121E",
"5  c #0D0E20",
"6  c #010C2C",
"7  c #041725",
"8  c #011A21",
"9  c #091C26",
"0  c #0A1C28",
"q  c #1A1422",
"w  c #141C24",
"e  c #001433",
"r  c #07153A",
"t  c #011F3B",
"y  c #032123",
"u  c #04202C",
"i  c #01203C",
"p  c #022B3F",
"a  c #162334",
"s  c #112E34",
"d  c #192F3A",
"f  c #10323C",
"g  c #1A343D",
"h  c #282B3A",
"j  c #322630",
"k  c #25313F",
"l  c #0C2E49",
"z  c #142C44",
"x  c #1E2D40",
"c  c #0D3340",
"v  c #0B3C4D",
"b  c #123146",
"n  c #003B56",
"m  c #0A3E54",
"M  c #123352",
"N  c #183557",
"B  c #193D5C",
"V  c #243144",
"C  c #223C4D",
"Z  c #0C4151",
"A  c #1A4B59",
"S  c #025259",
"D  c #23525C",
"F  c #2C545E",
"G  c #1C4A62",
"H  c #1B536E",
"J  c #0F607E",
"K  c #34747D",
"L  c #45687E",
"P  c #0C6E8B",
"I  c #1E6C80",
"U  c #0B7487",
"Y  c #296682",
"T  c #236D8A",
"R  c #247D86",
"E  c #327E8E",
"W  c #277B95",
"Q  c #2B769E",
"!  c #337A90",
"~  c #387798",
"^  c #427A8B",
"/  c #1A8398",
"(  c #1C8D9B",
")  c #259597",
"_  c #1D97AC",
"`  c #1A9CB2",
"'  c #3488A0",
"]  c #368EA2",
"[  c #229BAE",
"{  c #2598AD",
"}  c #3B9FAF",
"|  c #299DB6",
" . c #3A99B5",
".. c #458088",
"X. c #4A8293",
"o. c #418F9B",
"O. c #4C8B9D",
"+. c #478AA5",
"@. c #4883AD",
"#. c #4291A0",
"$. c #4E96AC",
"%. c #5689B6",
"&. c #4C9EB4",
"*. c #40AAB7",
"=. c #54A0B0",
"-. c #29A0C2",
";. c #2AA2C4",
":. c #39B4C3",
">. c #4AB2D5",
",. c #62B1C0",
"<. c #62BDD0",
"1. c #9DCBEF",
"2. c #80D3F5",
/* pixels */
"    o .     o o o   . . O . .           ",
". #   .     .     .       o o o     o O ",
"  o   X $     9 z f g x a o O . O   o o ",
"    o     o B / ( ' I R ,.O.2 . O O     ",
". . *   j =.` U Z r ; + p -.[ =   . . . ",
"+ 8 - 2 &.%.6 3 0 +   .   ; H | 2   . . ",
"  O y G _ 6   @ o X     X % o Q L :   . ",
"o   2 { M X   o . O   . O o & g 1.z = O ",
".   q ) i O           o       2 ~ D X , ",
"    < ^ t +   .   .     . # o & T c +   ",
"  . = R l + O o   @     O o O + W C   o ",
"    5 *.B     O   O       X O 8 ] V   + ",
"    0 $.Y : X     o o . X X & m E & #   ",
"o . < F <.n 4 . .   O .   > e  .A o ,   ",
"  X   1 K :.v ; o o   & b e ! #.7 w   o ",
"X   &     N } P p u 0 S J @.o.w & 4 - & ",
".     . .   s ..;.>.2.+.X.F +       o o ",
".       .   + 2 d k h o +     @         ",
"              o   . . .       .         ",
".           . @ +         o   O         "
};
